<svg xmlns="http://www.w3.org/2000/svg" width="19.121" height="28.303" viewBox="0 0 19.121 28.303"><defs><style>.a{fill:#f84444;}</style></defs><g transform="translate(-1833.053 -145)"><g transform="translate(1833.053 145)"><path class="a" d="M102.144,93l-.617-1.85a.912.912,0,0,0-.865-.623H84.573a.912.912,0,0,0-.865.623L83.091,93a.647.647,0,0,0,.614.852H101.53A.647.647,0,0,0,102.144,93Z" transform="translate(-83.057 -85.526)"/><path class="a" d="M102.961,197.886A1.257,1.257,0,0,0,104.21,199h10.709a1.257,1.257,0,0,0,1.25-1.118l1.911-17.2H101.05Z" transform="translate(-100.055 -170.701)"/><path class="a" d="M197.548,2.377a.719.719,0,0,1,.719-.719h2.443a.719.719,0,0,1,.719.719v.969h1.658V2.377A2.38,2.38,0,0,0,200.71,0h-2.443a2.38,2.38,0,0,0-2.377,2.377v.969h1.658Z" transform="translate(-189.653)"/></g></g></svg>